<mxfile host="app.diagrams.net" agent="Mozilla/5.0 (Windows NT 10.0; Win64; x64; rv:136.0) Gecko/20100101 Firefox/136.0" version="26.1.0">
  <diagram name="Pagina-1" id="rOT93RseFwFXbodsRm7L">
    <mxGraphModel dx="538" dy="800" grid="1" gridSize="10" guides="1" tooltips="1" connect="1" arrows="1" fold="1" page="1" pageScale="1" pageWidth="8268" pageHeight="1169" math="0" shadow="0">
      <root>
        <mxCell id="0" />
        <mxCell id="1" parent="0" />
        <mxCell id="ZrBkXSx4t8RdNaZ83y0n-43" value="" style="edgeStyle=orthogonalEdgeStyle;rounded=0;orthogonalLoop=1;jettySize=auto;html=1;" edge="1" parent="1" source="ZrBkXSx4t8RdNaZ83y0n-39">
          <mxGeometry relative="1" as="geometry">
            <mxPoint x="240" y="260" as="targetPoint" />
          </mxGeometry>
        </mxCell>
        <mxCell id="ZrBkXSx4t8RdNaZ83y0n-55" value="start = 1" style="edgeLabel;html=1;align=center;verticalAlign=middle;resizable=0;points=[];" vertex="1" connectable="0" parent="ZrBkXSx4t8RdNaZ83y0n-43">
          <mxGeometry relative="1" as="geometry">
            <mxPoint as="offset" />
          </mxGeometry>
        </mxCell>
        <mxCell id="ZrBkXSx4t8RdNaZ83y0n-39" value="IDLE" style="ellipse;whiteSpace=wrap;html=1;aspect=fixed;" vertex="1" parent="1">
          <mxGeometry x="120" y="240" width="40" height="40" as="geometry" />
        </mxCell>
        <mxCell id="ZrBkXSx4t8RdNaZ83y0n-94" style="edgeStyle=orthogonalEdgeStyle;rounded=0;orthogonalLoop=1;jettySize=auto;html=1;exitX=1;exitY=0.5;exitDx=0;exitDy=0;entryX=0;entryY=0;entryDx=0;entryDy=0;curved=1;" edge="1" parent="1" source="ZrBkXSx4t8RdNaZ83y0n-42" target="ZrBkXSx4t8RdNaZ83y0n-87">
          <mxGeometry relative="1" as="geometry">
            <Array as="points">
              <mxPoint x="839" y="180" />
            </Array>
          </mxGeometry>
        </mxCell>
        <mxCell id="ZrBkXSx4t8RdNaZ83y0n-42" value="SUM" style="ellipse;whiteSpace=wrap;html=1;aspect=fixed;" vertex="1" parent="1">
          <mxGeometry x="720" y="160" width="40" height="40" as="geometry" />
        </mxCell>
        <mxCell id="ZrBkXSx4t8RdNaZ83y0n-48" value="&lt;div style=&quot;line-height: 60%;&quot;&gt;&lt;font style=&quot;font-size: 6px; line-height: 60%;&quot;&gt;enable_counter = 0&lt;br&gt;reset_counter = 1&lt;br&gt;&lt;/font&gt;&lt;div&gt;&lt;font style=&quot;font-size: 6px; line-height: 60%;&quot;&gt;read_rom = 0&lt;/font&gt;&lt;/div&gt;&lt;div&gt;&lt;font style=&quot;font-size: 6px; line-height: 60%;&quot;&gt;write_mem = 0&lt;/font&gt;&lt;/div&gt;&lt;/div&gt;" style="text;html=1;align=center;verticalAlign=middle;whiteSpace=wrap;rounded=0;spacing=2;" vertex="1" parent="1">
          <mxGeometry x="112.5" y="280" width="55" height="40" as="geometry" />
        </mxCell>
        <mxCell id="ZrBkXSx4t8RdNaZ83y0n-50" value="&lt;div style=&quot;line-height: 60%;&quot;&gt;&lt;font style=&quot;font-size: 6px; line-height: 60%;&quot;&gt;m_load = 1&lt;br&gt;shiftregister_load= 1&lt;/font&gt;&lt;div&gt;&lt;font style=&quot;font-size: 6px; line-height: 60%;&quot;&gt;shiftr_mux_s = 1&lt;/font&gt;&lt;/div&gt;&lt;div&gt;&lt;font style=&quot;font-size: 6px; line-height: 60%;&quot;&gt;counter_reset = 1&lt;/font&gt;&lt;/div&gt;&lt;/div&gt;" style="text;html=1;align=center;verticalAlign=middle;whiteSpace=wrap;rounded=0;spacing=2;" vertex="1" parent="1">
          <mxGeometry x="240" y="280" width="120" height="40" as="geometry" />
        </mxCell>
        <mxCell id="ZrBkXSx4t8RdNaZ83y0n-51" style="edgeStyle=orthogonalEdgeStyle;rounded=0;orthogonalLoop=1;jettySize=auto;html=1;exitX=0;exitY=0;exitDx=0;exitDy=0;entryX=0;entryY=1;entryDx=0;entryDy=0;curved=1;" edge="1" parent="1" source="ZrBkXSx4t8RdNaZ83y0n-39" target="ZrBkXSx4t8RdNaZ83y0n-39">
          <mxGeometry relative="1" as="geometry">
            <Array as="points">
              <mxPoint x="90" y="246" />
              <mxPoint x="90" y="274" />
            </Array>
          </mxGeometry>
        </mxCell>
        <mxCell id="ZrBkXSx4t8RdNaZ83y0n-56" value="start = 0" style="edgeLabel;html=1;align=center;verticalAlign=middle;resizable=0;points=[];" vertex="1" connectable="0" parent="ZrBkXSx4t8RdNaZ83y0n-51">
          <mxGeometry relative="1" as="geometry">
            <mxPoint as="offset" />
          </mxGeometry>
        </mxCell>
        <mxCell id="ZrBkXSx4t8RdNaZ83y0n-57" value="&lt;div style=&quot;line-height: 60%;&quot;&gt;&lt;div&gt;&lt;font style=&quot;font-size: 6px; line-height: 60%;&quot;&gt;shiftregister_shift = 1&lt;/font&gt;&lt;/div&gt;&lt;/div&gt;" style="text;html=1;align=center;verticalAlign=middle;whiteSpace=wrap;rounded=0;spacing=2;" vertex="1" parent="1">
          <mxGeometry x="860" y="280" width="70" height="10" as="geometry" />
        </mxCell>
        <mxCell id="ZrBkXSx4t8RdNaZ83y0n-59" value="&lt;div style=&quot;line-height: 60%;&quot;&gt;&lt;div&gt;&lt;font style=&quot;font-size: 6px; line-height: 60%;&quot;&gt;add_sub_cin= 0&lt;/font&gt;&lt;/div&gt;&lt;div&gt;&lt;font style=&quot;font-size: 6px; line-height: 60%;&quot;&gt;shiftregister_load = 1&lt;/font&gt;&lt;/div&gt;&lt;/div&gt;" style="text;html=1;align=center;verticalAlign=middle;whiteSpace=wrap;rounded=0;spacing=2;" vertex="1" parent="1">
          <mxGeometry x="705" y="200" width="70" height="20" as="geometry" />
        </mxCell>
        <mxCell id="ZrBkXSx4t8RdNaZ83y0n-97" value="" style="edgeStyle=orthogonalEdgeStyle;rounded=0;orthogonalLoop=1;jettySize=auto;html=1;" edge="1" parent="1" source="ZrBkXSx4t8RdNaZ83y0n-81" target="ZrBkXSx4t8RdNaZ83y0n-96">
          <mxGeometry relative="1" as="geometry" />
        </mxCell>
        <mxCell id="ZrBkXSx4t8RdNaZ83y0n-81" value="LOAD_OPERANDS" style="ellipse;whiteSpace=wrap;html=1;" vertex="1" parent="1">
          <mxGeometry x="240" y="240" width="120" height="40" as="geometry" />
        </mxCell>
        <mxCell id="ZrBkXSx4t8RdNaZ83y0n-91" style="edgeStyle=orthogonalEdgeStyle;rounded=0;orthogonalLoop=1;jettySize=auto;html=1;exitX=1;exitY=0;exitDx=0;exitDy=0;entryX=0;entryY=0.5;entryDx=0;entryDy=0;curved=1;" edge="1" parent="1" source="ZrBkXSx4t8RdNaZ83y0n-84" target="ZrBkXSx4t8RdNaZ83y0n-42">
          <mxGeometry relative="1" as="geometry">
            <Array as="points">
              <mxPoint x="641" y="180" />
            </Array>
          </mxGeometry>
        </mxCell>
        <mxCell id="ZrBkXSx4t8RdNaZ83y0n-104" value="booth_eval = 01" style="edgeLabel;html=1;align=center;verticalAlign=middle;resizable=0;points=[];" vertex="1" connectable="0" parent="ZrBkXSx4t8RdNaZ83y0n-91">
          <mxGeometry relative="1" as="geometry">
            <mxPoint as="offset" />
          </mxGeometry>
        </mxCell>
        <mxCell id="ZrBkXSx4t8RdNaZ83y0n-92" style="edgeStyle=orthogonalEdgeStyle;rounded=0;orthogonalLoop=1;jettySize=auto;html=1;exitX=1;exitY=1;exitDx=0;exitDy=0;entryX=0;entryY=0.5;entryDx=0;entryDy=0;curved=1;" edge="1" parent="1" source="ZrBkXSx4t8RdNaZ83y0n-84" target="ZrBkXSx4t8RdNaZ83y0n-86">
          <mxGeometry relative="1" as="geometry">
            <Array as="points">
              <mxPoint x="641" y="340" />
            </Array>
          </mxGeometry>
        </mxCell>
        <mxCell id="ZrBkXSx4t8RdNaZ83y0n-105" value="booth_eval = 10" style="edgeLabel;html=1;align=center;verticalAlign=middle;resizable=0;points=[];" vertex="1" connectable="0" parent="ZrBkXSx4t8RdNaZ83y0n-92">
          <mxGeometry y="10" relative="1" as="geometry">
            <mxPoint as="offset" />
          </mxGeometry>
        </mxCell>
        <mxCell id="ZrBkXSx4t8RdNaZ83y0n-93" style="edgeStyle=orthogonalEdgeStyle;rounded=0;orthogonalLoop=1;jettySize=auto;html=1;exitX=1;exitY=0.5;exitDx=0;exitDy=0;entryX=0;entryY=0.5;entryDx=0;entryDy=0;" edge="1" parent="1" source="ZrBkXSx4t8RdNaZ83y0n-84" target="ZrBkXSx4t8RdNaZ83y0n-87">
          <mxGeometry relative="1" as="geometry" />
        </mxCell>
        <mxCell id="ZrBkXSx4t8RdNaZ83y0n-106" value="else" style="edgeLabel;html=1;align=center;verticalAlign=middle;resizable=0;points=[];" vertex="1" connectable="0" parent="ZrBkXSx4t8RdNaZ83y0n-93">
          <mxGeometry relative="1" as="geometry">
            <mxPoint as="offset" />
          </mxGeometry>
        </mxCell>
        <mxCell id="ZrBkXSx4t8RdNaZ83y0n-84" value="BOOTH" style="ellipse;whiteSpace=wrap;html=1;" vertex="1" parent="1">
          <mxGeometry x="590" y="240" width="60" height="40" as="geometry" />
        </mxCell>
        <mxCell id="ZrBkXSx4t8RdNaZ83y0n-95" style="edgeStyle=orthogonalEdgeStyle;rounded=0;orthogonalLoop=1;jettySize=auto;html=1;exitX=1;exitY=0.5;exitDx=0;exitDy=0;entryX=0;entryY=1;entryDx=0;entryDy=0;curved=1;" edge="1" parent="1" source="ZrBkXSx4t8RdNaZ83y0n-86" target="ZrBkXSx4t8RdNaZ83y0n-87">
          <mxGeometry relative="1" as="geometry">
            <Array as="points">
              <mxPoint x="839" y="340" />
            </Array>
          </mxGeometry>
        </mxCell>
        <mxCell id="ZrBkXSx4t8RdNaZ83y0n-86" value="SUB" style="ellipse;whiteSpace=wrap;html=1;aspect=fixed;" vertex="1" parent="1">
          <mxGeometry x="720" y="320" width="40" height="40" as="geometry" />
        </mxCell>
        <mxCell id="ZrBkXSx4t8RdNaZ83y0n-101" style="edgeStyle=orthogonalEdgeStyle;rounded=0;orthogonalLoop=1;jettySize=auto;html=1;exitX=0.5;exitY=1;exitDx=0;exitDy=0;entryX=0.5;entryY=1;entryDx=0;entryDy=0;curved=1;" edge="1" parent="1" source="ZrBkXSx4t8RdNaZ83y0n-87" target="ZrBkXSx4t8RdNaZ83y0n-96">
          <mxGeometry relative="1" as="geometry">
            <Array as="points">
              <mxPoint x="460" y="400" />
            </Array>
          </mxGeometry>
        </mxCell>
        <mxCell id="ZrBkXSx4t8RdNaZ83y0n-87" value="SHIFT" style="ellipse;whiteSpace=wrap;html=1;" vertex="1" parent="1">
          <mxGeometry x="830" y="240" width="60" height="40" as="geometry" />
        </mxCell>
        <mxCell id="ZrBkXSx4t8RdNaZ83y0n-100" style="edgeStyle=orthogonalEdgeStyle;rounded=0;orthogonalLoop=1;jettySize=auto;html=1;exitX=0;exitY=0.5;exitDx=0;exitDy=0;entryX=0.5;entryY=0;entryDx=0;entryDy=0;curved=1;" edge="1" parent="1" source="ZrBkXSx4t8RdNaZ83y0n-90" target="ZrBkXSx4t8RdNaZ83y0n-39">
          <mxGeometry relative="1" as="geometry">
            <Array as="points">
              <mxPoint x="140" y="180" />
            </Array>
          </mxGeometry>
        </mxCell>
        <mxCell id="ZrBkXSx4t8RdNaZ83y0n-90" value="DONE" style="ellipse;whiteSpace=wrap;html=1;" vertex="1" parent="1">
          <mxGeometry x="270" y="160" width="60" height="40" as="geometry" />
        </mxCell>
        <mxCell id="ZrBkXSx4t8RdNaZ83y0n-98" value="" style="edgeStyle=orthogonalEdgeStyle;rounded=0;orthogonalLoop=1;jettySize=auto;html=1;" edge="1" parent="1" source="ZrBkXSx4t8RdNaZ83y0n-96" target="ZrBkXSx4t8RdNaZ83y0n-84">
          <mxGeometry relative="1" as="geometry" />
        </mxCell>
        <mxCell id="ZrBkXSx4t8RdNaZ83y0n-103" value="counter_Q = 0" style="edgeLabel;html=1;align=center;verticalAlign=middle;resizable=0;points=[];" vertex="1" connectable="0" parent="ZrBkXSx4t8RdNaZ83y0n-98">
          <mxGeometry relative="1" as="geometry">
            <mxPoint as="offset" />
          </mxGeometry>
        </mxCell>
        <mxCell id="ZrBkXSx4t8RdNaZ83y0n-99" style="edgeStyle=orthogonalEdgeStyle;rounded=0;orthogonalLoop=1;jettySize=auto;html=1;exitX=0.5;exitY=0;exitDx=0;exitDy=0;entryX=1;entryY=0.5;entryDx=0;entryDy=0;curved=1;" edge="1" parent="1" source="ZrBkXSx4t8RdNaZ83y0n-96" target="ZrBkXSx4t8RdNaZ83y0n-90">
          <mxGeometry relative="1" as="geometry">
            <Array as="points">
              <mxPoint x="460" y="180" />
            </Array>
          </mxGeometry>
        </mxCell>
        <mxCell id="ZrBkXSx4t8RdNaZ83y0n-102" value="counter_Q = 1" style="edgeLabel;html=1;align=center;verticalAlign=middle;resizable=0;points=[];" vertex="1" connectable="0" parent="ZrBkXSx4t8RdNaZ83y0n-99">
          <mxGeometry relative="1" as="geometry">
            <mxPoint as="offset" />
          </mxGeometry>
        </mxCell>
        <mxCell id="ZrBkXSx4t8RdNaZ83y0n-96" value="TEST" style="ellipse;whiteSpace=wrap;html=1;aspect=fixed;" vertex="1" parent="1">
          <mxGeometry x="440" y="240" width="40" height="40" as="geometry" />
        </mxCell>
        <mxCell id="ZrBkXSx4t8RdNaZ83y0n-107" value="&lt;div style=&quot;line-height: 60%;&quot;&gt;&lt;div&gt;&lt;font style=&quot;font-size: 6px; line-height: 60%;&quot;&gt;add_sub_cin= 1&lt;/font&gt;&lt;/div&gt;&lt;div&gt;&lt;font style=&quot;font-size: 6px; line-height: 60%;&quot;&gt;shiftregister_load = 1&lt;/font&gt;&lt;/div&gt;&lt;/div&gt;" style="text;html=1;align=center;verticalAlign=middle;whiteSpace=wrap;rounded=0;spacing=2;" vertex="1" parent="1">
          <mxGeometry x="705" y="360" width="70" height="20" as="geometry" />
        </mxCell>
        <mxCell id="ZrBkXSx4t8RdNaZ83y0n-108" value="&lt;div style=&quot;line-height: 60%;&quot;&gt;&lt;div&gt;&lt;font style=&quot;font-size: 6px; line-height: 60%;&quot;&gt;done_sig = 1&lt;/font&gt;&lt;/div&gt;&lt;/div&gt;" style="text;html=1;align=center;verticalAlign=middle;whiteSpace=wrap;rounded=0;spacing=2;" vertex="1" parent="1">
          <mxGeometry x="280" y="200" width="40" height="20" as="geometry" />
        </mxCell>
        <mxCell id="ZrBkXSx4t8RdNaZ83y0n-109" value="&lt;div style=&quot;line-height: 60%;&quot;&gt;&lt;div&gt;&lt;font style=&quot;font-size: 6px; line-height: 60%;&quot;&gt;counter_enable = 1&lt;/font&gt;&lt;/div&gt;&lt;/div&gt;" style="text;html=1;align=center;verticalAlign=middle;whiteSpace=wrap;rounded=0;spacing=2;" vertex="1" parent="1">
          <mxGeometry x="390" y="280" width="60" height="10" as="geometry" />
        </mxCell>
      </root>
    </mxGraphModel>
  </diagram>
</mxfile>
